<svg xmlns="http://www.w3.org/2000/svg" viewBox="0 0 576 521.38"><defs><style>.cls-1{fill:#fff;}.cls-2{fill:#47b6fa;}.cls-3{fill:none;}.cls-3,.cls-4{stroke:#fff;stroke-linecap:round;stroke-miterlimit:10;stroke-width:18px;}.cls-4{fill:#595959;}</style></defs><g id="Layer_2" data-name="Layer 2"><g id="Layer_1-2" data-name="Layer 1"><path class="cls-1" d="M471.06,304.85H190.72A104.93,104.93,0,0,1,85.79,199.91v-95A104.93,104.93,0,0,1,190.72,0H471.06A104.94,104.94,0,0,1,576,104.94v95A104.94,104.94,0,0,1,471.06,304.85Z"/><path class="cls-2" d="M385.28,113.36H104.94A104.94,104.94,0,0,0,0,218.3v95A104.93,104.93,0,0,0,104.94,418.21h13l3,103.17s83.49-103.17,262.59-103.17h1.71A104.93,104.93,0,0,0,490.21,313.28v-95A104.93,104.93,0,0,0,385.28,113.36Z"/><path class="cls-3" d="M120.26,277.28s29.1,71.23,111.83,63.57S347,257.36,350.81,227.49"/><line class="cls-4" x1="185.36" y1="182.3" x2="185.36" y2="208.34"/><line class="cls-4" x1="274.98" y1="182.3" x2="278.81" y2="208.34"/></g></g></svg>